<svg xmlns="http://www.w3.org/2000/svg" xmlns:xlink="http://www.w3.org/1999/xlink" width="1080" zoomAndPan="magnify" viewBox="0 0 810 809.999993" height="1080" preserveAspectRatio="xMidYMid meet" version="1.0"><path fill="#e33c32" d="M 363.742188 297.804688 C 359.238281 297.804688 355.59375 301.378906 355.59375 305.769531 L 355.59375 341.265625 L 308.089844 294.667969 C 304.890625 291.527344 299.777344 291.527344 296.582031 294.667969 C 295.027344 296.136719 294.191406 298.179688 294.191406 300.296875 C 294.191406 302.414062 295.113281 304.472656 296.582031 305.957031 L 344.089844 352.585938 L 307.945312 352.585938 C 303.4375 352.585938 299.792969 356.15625 299.792969 360.589844 C 299.792969 365.011719 303.4375 368.554688 307.945312 368.554688 L 363.773438 368.554688 C 364.851562 368.566406 365.933594 368.367188 366.910156 367.949219 C 368.898438 367.15625 370.484375 365.601562 371.320312 363.601562 C 371.777344 362.648438 371.921875 361.613281 371.921875 360.5625 L 371.964844 305.8125 L 371.894531 305.769531 C 371.894531 301.363281 368.25 297.804688 363.742188 297.804688 Z M 363.742188 297.804688 " fill-opacity="1" fill-rule="nonzero"/><path fill="#e33c32" d="M 718.171875 122.441406 C 711.246094 109.441406 700.574219 98.8125 687.558594 91.914062 C 674.28125 84.800781 661.246094 81.027344 625.160156 81.027344 L 184.839844 81.027344 L 184.839844 81 C 148.753906 81 135.664062 84.773438 122.441406 91.8125 C 109.46875 98.785156 98.796875 109.441406 91.828125 122.429688 C 84.773438 135.664062 81 148.753906 81 184.839844 L 81 625.160156 C 81 661.261719 84.773438 674.335938 91.8125 687.570312 C 98.785156 700.546875 109.441406 711.289062 122.429688 718.1875 C 135.664062 725.257812 148.753906 729 184.839844 729 L 625.160156 729 C 661.261719 729 674.335938 725.210938 687.570312 718.171875 C 700.804688 711.128906 711.113281 700.847656 718.1875 687.558594 C 725.257812 674.28125 729 661.246094 729 625.160156 L 729 184.839844 C 729 148.753906 725.226562 135.664062 718.171875 122.441406 Z M 581.542969 543.253906 C 581.542969 556.085938 580.378906 560.160156 578.042969 564.824219 C 575.710938 569.492188 571.636719 572.992188 567.546875 575.324219 C 562.292969 578.246094 557.640625 579.414062 545.386719 579.414062 L 391.421875 579.414062 C 378.589844 579.414062 374.5 578.246094 369.835938 575.914062 C 365.167969 573.582031 361.671875 569.503906 359.335938 565.417969 C 357.003906 560.75 355.839844 556.097656 355.839844 543.84375 L 355.839844 454.03125 L 354.671875 455.199219 L 267.191406 455.199219 C 254.953125 455.199219 250.285156 454.03125 245.621094 451.699219 C 241.53125 449.367188 237.457031 445.867188 235.125 441.203125 C 232.789062 436.523438 231.625 432.445312 231.625 419.617188 L 231.625 265.652344 C 231.625 253.410156 232.789062 248.746094 235.125 244.078125 C 238.03125 239.414062 241.53125 235.914062 246.195312 233.007812 C 250.863281 230.671875 255.511719 229.507812 267.769531 229.507812 L 421.71875 229.507812 C 434.546875 229.507812 439.214844 230.671875 443.304688 233.007812 C 447.394531 235.339844 451.46875 238.839844 453.800781 243.503906 C 456.132812 248.167969 457.300781 252.246094 457.300781 265.074219 L 457.300781 352.554688 L 456.132812 353.722656 L 545.371094 353.722656 C 558.203125 353.722656 562.277344 354.886719 566.941406 357.222656 C 571.609375 359.554688 575.105469 363.628906 577.441406 367.71875 C 579.773438 372.382812 581.53125 377.050781 581.542969 389.289062 Z M 581.542969 543.253906 " fill-opacity="1" fill-rule="nonzero"/><path fill="#e33c32" d="M 468.476562 455.199219 L 504.621094 455.199219 C 509.125 455.199219 512.769531 451.628906 512.769531 447.191406 C 512.769531 442.757812 509.125 439.214844 504.621094 439.214844 L 448.789062 439.214844 C 447.710938 439.199219 446.628906 439.402344 445.652344 439.820312 C 443.664062 440.597656 442.078125 442.152344 441.246094 444.152344 C 440.785156 445.105469 440.640625 446.140625 440.640625 447.191406 L 440.597656 501.96875 L 440.667969 502.011719 C 440.667969 506.417969 444.3125 509.992188 448.820312 509.992188 C 453.328125 509.992188 456.96875 506.40625 456.96875 502.011719 L 456.96875 466.515625 L 504.460938 513.117188 C 507.65625 516.253906 512.769531 516.253906 515.964844 513.117188 C 517.523438 511.632812 518.34375 509.601562 518.355469 507.484375 C 518.355469 505.367188 517.433594 503.308594 515.964844 501.824219 Z M 468.476562 455.199219 " fill-opacity="1" fill-rule="nonzero"/></svg>