<?xml version="1.0" encoding="iso-8859-1"?>
<!-- Generator: Adobe Illustrator 24.1.0, SVG Export Plug-In . SVG Version: 6.00 Build 0)  -->
<svg version="1.1" id="icon" xmlns="http://www.w3.org/2000/svg" xmlns:xlink="http://www.w3.org/1999/xlink" x="0px" y="0px"
	 viewBox="0 0 45 45" style="enable-background:new 0 0 45 45;" xml:space="preserve">
<g>
	<path style="fill-rule:evenodd;clip-rule:evenodd;fill:#00AEEF;" d="M37.791,45H7.093c-2.558,0-3.372-0.232-4.302-0.698
		c-0.931-0.465-1.628-1.279-2.093-2.093C0.232,41.279,0,40.349,0,37.907V7.093c0-2.558,0.232-3.372,0.698-4.302
		C1.163,1.86,1.976,1.163,2.791,0.697C3.721,0.232,4.651,0,7.093,0h30.698c2.558,0,3.372,0.232,4.302,0.698
		c0.931,0.465,1.628,1.279,2.093,2.093C44.651,3.721,45,4.651,45,7.093v30.698c0,2.558-0.232,3.372-0.698,4.302
		c-0.465,0.931-1.279,1.628-2.093,2.093C41.162,44.768,40.233,45,37.791,45z"/>
	<g>
		<g>
			<path style="fill:#FFFFFF;" d="M14.174,14.067c4.43-0.296,7.383-1.71,8.347-2.238c0.859,0.469,3.295,1.64,6.937,2.102v-1.279
				c-4.118-0.561-6.571-2.07-6.601-2.089L22.52,10.35l-0.338,0.214c-0.034,0.022-3.152,1.957-8.329,2.254
				c-0.298-0.382-0.761-0.63-1.284-0.63c-0.899,0-1.626,0.727-1.626,1.626c0,0.899,0.727,1.626,1.626,1.626
				C13.382,15.441,14.053,14.846,14.174,14.067z M11.666,13.815c0-0.499,0.404-0.904,0.904-0.904s0.904,0.404,0.904,0.904
				c0,0.499-0.404,0.904-0.904,0.904S11.666,14.314,11.666,13.815z"/>
			<path style="fill:#FFFFFF;" d="M22.526,31.397c-0.472,0-0.894,0.202-1.191,0.521c-3.008-1.412-5.257-3.592-6.547-6.377
				c-1.224-2.658-1.561-6.584-1.638-9.22l-1.272-0.013c0.075,2.738,0.427,6.869,1.761,9.762c1.433,3.097,3.931,5.504,7.264,7.041
				c0.046,0.858,0.753,1.538,1.622,1.538c0.899,0,1.627-0.727,1.627-1.626C24.153,32.125,23.425,31.397,22.526,31.397z
				 M22.526,33.927c-0.499,0-0.904-0.404-0.904-0.904s0.404-0.904,0.904-0.904s0.904,0.404,0.904,0.904
				C23.43,33.523,23.025,33.927,22.526,33.927z"/>
			<path style="fill:#FFFFFF;" d="M34.057,13.517c0-0.899-0.728-1.626-1.627-1.626c-0.897,0-1.625,0.727-1.625,1.626
				c0,0.721,0.469,1.33,1.118,1.544c-0.005,2.467-0.217,7.349-1.66,10.479c-1.119,2.42-2.964,4.383-5.4,5.783l0.512,1.164
				c2.723-1.533,4.787-3.712,6.037-6.417c1.579-3.427,1.784-8.588,1.779-11.116C33.706,14.682,34.057,14.141,34.057,13.517z
				 M32.43,14.421c-0.499,0-0.904-0.404-0.904-0.904s0.404-0.904,0.904-0.904c0.5,0,0.905,0.405,0.905,0.904
				S32.931,14.421,32.43,14.421z"/>
			<path style="fill:#FFFFFF;" d="M22.495,13.815c-0.836,0.46-3.532,1.745-7.572,1.845c-0.03,1.524-0.008,6.314,1.333,9.221
				c1.17,2.536,3.328,4.456,6.239,5.559c0.002-0.001,0.004-0.002,0.005-0.002V13.818C22.498,13.817,22.496,13.816,22.495,13.815z"/>
			<path style="fill:#FFFFFF;" d="M30.076,15.66c-4.033-0.1-6.729-1.381-7.576-1.842v16.621c2.917-1.102,5.074-3.021,6.243-5.558
				C30.087,21.974,30.108,17.184,30.076,15.66z"/>
		</g>
	</g>
</g>
</svg>
